<svg xmlns="http://www.w3.org/2000/svg" viewBox="0 0 161.44 73.58"><defs><style>.cls-1{fill:none;}</style></defs><title>logo-txt</title><g id="logos"><path d="M9.22,3.93,1.42,4C1.12,4,1,3.89.94,3.52A10.31,10.31,0,0,1,.85,2.13,10.31,10.31,0,0,1,.94.74C1,.36,1.12.3,1.42.3H19.59c.3,0,.42.06.47.44a8.89,8.89,0,0,1,.09,1.39,8.89,8.89,0,0,1-.09,1.39c0,.37-.17.44-.47.44l-7.81,0c-.14,0-.19.16-.19.45v13c0,.34,0,.47-.26.53a3.09,3.09,0,0,1-.83.11,2.9,2.9,0,0,1-.82-.11c-.23-.06-.26-.19-.26-.53V4.38C9.42,4.09,9.37,3.93,9.22,3.93Z"/><path d="M37.48,17.92c-.43,0-.56-.12-.69-.43l-1.22-3.14A.41.41,0,0,0,35,14a34.18,34.18,0,0,1-4.58.28A34.18,34.18,0,0,1,25.88,14a.42.42,0,0,0-.54.31l-1.2,3.14c-.13.31-.26.39-.69.43a8.31,8.31,0,0,1-1,0,8.75,8.75,0,0,1-1.31-.08c-.25,0-.37-.15-.37-.31a.87.87,0,0,1,.07-.3L27.66.87c.16-.41.37-.54.88-.54h4a.78.78,0,0,1,.88.54l6.81,16.41a.71.71,0,0,1,.08.3c0,.16-.12.28-.37.31a8.45,8.45,0,0,1-1.29.08A11.47,11.47,0,0,1,37.48,17.92ZM29,4.31,26.7,10.55a.79.79,0,0,0-.05.24q0,.23.3.27a20,20,0,0,0,3.51.22A20,20,0,0,0,34,11.06q.3,0,.3-.27a.79.79,0,0,0-.05-.24L31.81,4.27c-.09-.21-.17-.31-.7-.31H29.69C29.16,4,29.07,4.09,29,4.31Z"/><path d="M53,17.64a.3.3,0,0,0-.3.3.35.35,0,0,0,.21.33,9.6,9.6,0,0,0,5.09,1,25.2,25.2,0,0,0,2.81-.32.62.62,0,0,1,.18,0c.19,0,.28.09.32.32a8.47,8.47,0,0,1,.09,1.34,9.1,9.1,0,0,1-.06,1.29c0,.27-.12.36-.43.44a9.83,9.83,0,0,1-1.94.16c-3.41,0-5.88-1.55-9-2.91-5.18-2.27-7.89-4.79-7.89-10.44,0-6,3-9.1,9.25-9.1S60.6,3.09,60.6,9.1C60.6,14.53,58.09,17.19,53,17.64Zm-1.63-3.08c4,0,6.89-1.58,6.89-5.46S55.32,3,51.34,3,44.46,5,44.46,9.1,47.37,14.56,51.34,14.56Z"/><path d="M72.54,14.56c2.9,0,5.84-.48,5.84-4.35V.82c0-.3.05-.42.25-.48a3.76,3.76,0,0,1,.93-.1,3.82,3.82,0,0,1,.93.1c.2.06.26.18.26.48v9.66c0,5.74-2.9,7.73-8.27,7.73s-8.27-2-8.27-7.73V.88c0-.34,0-.48.29-.54a3.47,3.47,0,0,1,.89-.1,3.76,3.76,0,0,1,.91.1c.24.06.28.2.28.54v9.33C66.58,14.08,69.64,14.56,72.54,14.56Z"/><path d="M85.12.33H88c.53,0,.7.08.94.45L98,14c.09.17.11.18.32.18h.43c.19,0,.22,0,.22-.22V.79c0-.33,0-.42.27-.48a4.26,4.26,0,0,1,.91-.07,3.8,3.8,0,0,1,.81.07c.35.06.38.15.38.48V17.24c0,.52-.23.65-.69.65h-3.5c-.54,0-.75-.07-.94-.45L87.49,3.08c-.09-.16-.1-.18-.31-.18H87c-.19,0-.22,0-.22.23v14.3c0,.33,0,.42-.27.48a4.26,4.26,0,0,1-.91.07,4.3,4.3,0,0,1-.92-.07c-.25-.06-.27-.15-.27-.48V1C84.43.46,84.66.33,85.12.33Z"/><path d="M15.27,45.27,12.38,34.85c0-.12-.06-.17-.21-.17H12c-.15,0-.18,0-.21.17L9,45.27c-.12.61-.3.74-.86.74h-4c-.56,0-.74-.13-.86-.74L0,29c-.06-.33,0-.52.24-.58a4.54,4.54,0,0,1,1-.1,4.83,4.83,0,0,1,.91.06c.21,0,.3.15.38.49L6,41.75c0,.22.12.26.28.26h.18c.16,0,.23,0,.28-.26l3.69-10.56a1.73,1.73,0,0,0,0-.75L10.21,29c-.07-.33,0-.54.25-.6a7.89,7.89,0,0,1,1.32-.1,6.87,6.87,0,0,1,1.07.06c.26,0,.29.16.4.49l4.48,12.88c.05.22.12.26.29.26h.17c.16,0,.24,0,.28-.26l3.34-12.88c.08-.32.16-.46.42-.5a3.85,3.85,0,0,1,.85-.05,6.52,6.52,0,0,1,1,.11c.29.08.32.26.25.59L21,45.27c-.12.61-.3.74-.86.74h-4C15.57,46,15.39,45.88,15.27,45.27Z"/><path d="M63.82,34.31a6.33,6.33,0,0,1-3.63,5.54c-.18.1-.23.24-.11.41l4.74,5.14c.18.24.19.55-.21.61A11.83,11.83,0,0,1,63,46.1,13.93,13.93,0,0,1,61.28,46c-.34-.06-.51-.09-.7-.37l-3-4.75a.65.65,0,0,0-.69-.3c-1,0-5.14,0-5.88-.12-.19,0-.27.1-.27.34v4.65c0,.34,0,.48-.28.54a3.7,3.7,0,0,1-.91.1,3.47,3.47,0,0,1-.89-.1c-.25-.06-.29-.2-.29-.54V29.06c0-.52.15-.66.45-.66h1.92s3.1-.07,5.26-.07C60.2,28.32,63.82,29.29,63.82,34.31ZM50.76,36.56c0,.21.07.27.22.3.35.08,2.85.14,4.29.14,2.51,0,5.87,0,5.87-2.57s-3.36-2.57-5.87-2.57c-1.44,0-3.94.06-4.29.14-.15,0-.22.09-.22.3Z"/><path d="M68.4,28.47a3.41,3.41,0,0,1,.89-.11,3.64,3.64,0,0,1,.91.11c.24.06.28.19.28.53v5.63a.5.5,0,0,0,.46.55l2.45,0a1.28,1.28,0,0,0,.84-.38c.24-.22,5.87-5.89,6-6a1.16,1.16,0,0,1,.58-.38A9,9,0,0,1,82,28.35a7.07,7.07,0,0,1,1,.07.35.35,0,0,1,.18.57c-.14.18-6.44,7.61-6.44,7.61a.32.32,0,0,0-.09.26V37a.32.32,0,0,0,.09.26s7,7.88,7.14,8.1a.38.38,0,0,1-.24.65,10.77,10.77,0,0,1-1.65.1,12.55,12.55,0,0,1-1.67-.1,1.11,1.11,0,0,1-.67-.45l-5.54-6.61a1.12,1.12,0,0,0-.83-.38l-2.34,0a.5.5,0,0,0-.46.55v6.31c0,.35,0,.48-.28.54a3.7,3.7,0,0,1-.91.1,3.47,3.47,0,0,1-.89-.1c-.25-.06-.28-.19-.28-.54V29C68.12,28.66,68.15,28.53,68.4,28.47Z"/><path d="M108.25,38.68a.36.36,0,0,0-.36.4v6.38c0,.34,0,.48-.28.54a3.7,3.7,0,0,1-.91.1,3.47,3.47,0,0,1-.89-.1c-.25-.06-.28-.2-.28-.54V29c0-.35,0-.48.28-.54a3.47,3.47,0,0,1,.89-.1,3.7,3.7,0,0,1,.91.1c.24.06.28.19.28.54v5.65a.44.44,0,0,0,.36.45,54.23,54.23,0,0,0,5.64.23,31.64,31.64,0,0,0,4.39-.23.42.42,0,0,0,.33-.45V29c0-.35,0-.48.28-.54a3.55,3.55,0,0,1,.9-.1,3.61,3.61,0,0,1,.9.1c.24.06.28.19.28.54v16.5c0,.34,0,.48-.28.54a3.61,3.61,0,0,1-.9.1,3.55,3.55,0,0,1-.9-.1c-.24-.06-.28-.2-.28-.54V39.08c0-.29-.18-.42-.33-.4-.39.07-2.92.23-4.39.23S108.64,38.75,108.25,38.68Z"/><path d="M149.17,41.1c-.27-.05-.42.11-.42.43v3.93c0,.34,0,.48-.28.54a3.76,3.76,0,0,1-.91.1,3.61,3.61,0,0,1-.9-.1c-.24-.06-.28-.2-.28-.54v-16c0-.77.13-1,.55-1h1.82s3-.22,5.16-.13c5,.2,7.53,2.38,7.53,6.34A6.29,6.29,0,0,1,155.92,41,26.84,26.84,0,0,1,149.17,41.1Zm4.56-9.7a37.24,37.24,0,0,0-4.54.22c-.35.05-.44.2-.44.64V37c0,.43.08.54.35.66A20.12,20.12,0,0,0,154,38c3.24-.25,4.92-1.14,4.92-3.33C158.91,32.22,156.79,31.47,153.73,31.4Z"/><path d="M35.77,28.1C42,28.1,45,31.19,45,37.2s-3,9.11-9.25,9.11-9.25-3.1-9.25-9.11S29.51,28.1,35.77,28.1Zm0,14.56c4.93,0,6.88-3,6.88-5.77s-1.95-5.78-6.88-5.78S28.89,34,28.89,36.89,30.84,42.66,35.77,42.66Z"/><path d="M133.6,28.1c6.26,0,9.25,3.09,9.25,9.1s-3,9.11-9.25,9.11-9.25-3.1-9.25-9.11S127.34,28.1,133.6,28.1Zm0,14.56c4.93,0,6.88-3,6.88-5.77s-1.95-5.78-6.88-5.78-6.88,2.84-6.88,5.78S128.67,42.66,133.6,42.66Z"/><path d="M94.6,31.13c-2.1-.06-5.63.19-5.63,2s2.91,1.93,6,2.42c4.22.66,7.16,1.39,7.16,5.45,0,4.38-4.26,5.37-8.34,5.37a30.51,30.51,0,0,1-6.71-.79c-.36-.11-.4-.2-.43-.52a17.29,17.29,0,0,1,.09-2.89c.06-.3.21-.36.52-.28a52.21,52.21,0,0,0,7.41.91c2.35.08,5.1.08,5.1-1.66s-2.39-2-6-2.51c-3.9-.62-7-1.45-7-5.25,0-4.15,3.84-5.22,7.87-5.22a23,23,0,0,1,6.1.89c.33.1.39.19.42.52a10.87,10.87,0,0,1-.09,2.37c-.07.33-.31.36-.62.29A22.54,22.54,0,0,0,94.6,31.13Z"/><path d="M9.71,57.82a.42.42,0,0,0,.13-.51,3.5,3.5,0,0,0-.45-.8c-.14-.18-.31-.25-.47-.14-.49.36-1.65,1.52-3.24,2.7-1.42,1-3.72,2.56-4.63,3.07a.38.38,0,0,0-.19.45,7.59,7.59,0,0,0,.43,1.33.35.35,0,0,0,.49.2l3-2.24A.14.14,0,0,1,5,62V73.2a.34.34,0,0,0,.29.36,2,2,0,0,0,.55,0,.36.36,0,0,0,.3-.35v-12a.46.46,0,0,1,.17-.32C7.33,59.89,9,58.46,9.71,57.82Z"/><path d="M15.86,55.86a.44.44,0,0,0,0,.13v.82h0V56A.51.51,0,0,1,15.86,55.86Z"/><path d="M17,56.81h0v0Z"/><path d="M21.26,71.17c-.29,0-2.33.23-4.06.27-2.2,0-4.4.06-4.4-2.28v-6a.18.18,0,0,1,.16-.18l2.68-.29a.19.19,0,0,1,.2.19v4.28a.34.34,0,0,0,.27.33,2.57,2.57,0,0,0,.62,0,.3.3,0,0,0,.24-.32V62.67a.17.17,0,0,1,.16-.18l3-.32a.18.18,0,0,1,.19.19l-.24,5.28a.31.31,0,0,0,.27.37A2,2,0,0,0,21,68a.36.36,0,0,0,.27-.36l.29-7.06a.36.36,0,0,0-.38-.38l-4,.33a.18.18,0,0,1-.19-.19V56c0-.18-.15-.25-.3-.29a1.57,1.57,0,0,0-.53,0,.38.38,0,0,0-.28.19.51.51,0,0,0,0,.13v4.53a.19.19,0,0,1-.17.19L13,60.9a.18.18,0,0,1-.19-.18V56c0-.21-.15-.28-.3-.32a1.63,1.63,0,0,0-.54,0c-.15,0-.3.11-.3.32v4.87a.19.19,0,0,1-.16.19l-3.36.25c-.19,0-.27.11-.33.37a6,6,0,0,0,0,1.4c.06.26.18.39.39.36l3.27-.34a.18.18,0,0,1,.19.18c0,.75,0,3,0,5.71,0,3,.82,4.29,4,4.52a26.83,26.83,0,0,0,5.61-.17c.27-.06.38-.13.43-.38a6.13,6.13,0,0,0,0-1.42A.4.4,0,0,0,21.26,71.17Z"/><path class="cls-1" d="M34.3,61.79h-4a.17.17,0,0,0-.17.15L30,63a.18.18,0,0,0,.17.22H34.3a.19.19,0,0,0,.18-.19V62A.18.18,0,0,0,34.3,61.79Z"/><path class="cls-1" d="M34.3,58.51H30.83a.18.18,0,0,0-.18.16l-.12,1.06a.19.19,0,0,0,.17.21h3.6a.18.18,0,0,0,.18-.19V58.69A.18.18,0,0,0,34.3,58.51Z"/><path d="M35.26,56.36H27.09c-.19,0-.35.16-.39.42a6,6,0,0,0,0,1.4.38.38,0,0,0,.38.33h2.23a.18.18,0,0,1,.17.21l-.16,1.06a.18.18,0,0,1-.17.16H27.37c-.2,0-.32.18-.36.4a4.57,4.57,0,0,0,0,1.11c.05.2.13.34.33.34h1.29a.18.18,0,0,1,.17.23l-.26,1.06a.18.18,0,0,1-.17.14H26.18a.39.39,0,0,0-.4.33,5.24,5.24,0,0,0,0,1.48.41.41,0,0,0,.4.34h1.47a.18.18,0,0,1,.16.24c-.11.37-.35,1.15-.72,2.27-.44,1.34-1,2.67-1.19,3.26a.47.47,0,0,0,.11.52,2.81,2.81,0,0,0,.91.47c.17,0,.46,0,.53-.24.23-.69.71-2.14,1.08-3.4s.73-2.6.83-3a.17.17,0,0,1,.17-.13h5.73a.37.37,0,0,0,.36-.37V56.73A.36.36,0,0,0,35.26,56.36ZM34.48,63a.19.19,0,0,1-.18.19H30.14A.18.18,0,0,1,30,63l.2-1.06a.17.17,0,0,1,.17-.15h4a.18.18,0,0,1,.18.18Zm0-3.28a.18.18,0,0,1-.18.19H30.7a.19.19,0,0,1-.17-.21l.12-1.06a.18.18,0,0,1,.18-.16H34.3a.18.18,0,0,1,.18.18Z"/><path d="M35,66.69H30a.36.36,0,0,0-.35.37V73.2a.35.35,0,0,0,.35.36h5a.36.36,0,0,0,.35-.36V67.06A.37.37,0,0,0,35,66.69Zm-.79,4.54a.18.18,0,0,1-.17.18H31a.18.18,0,0,1-.18-.18V69a.18.18,0,0,1,.18-.18h3.08a.18.18,0,0,1,.17.18Z"/><path d="M45.86,67.86a.41.41,0,0,0-.41-.33H41.91a.18.18,0,0,1-.18-.18V65.56a.18.18,0,0,1,.18-.18H45c.19,0,.34-.1.39-.37a6.63,6.63,0,0,0,0-1.41c0-.26-.2-.37-.39-.37H41.91a.18.18,0,0,1-.18-.19V61.26a.18.18,0,0,1,.18-.18h3.5a.43.43,0,0,0,.43-.37,5.62,5.62,0,0,0,0-1.42.44.44,0,0,0-.43-.37H43.54a.17.17,0,0,1-.17-.21c0-.25.09-.72.15-1.3s.1-1,.13-1.37a.35.35,0,0,0-.35-.4,3.14,3.14,0,0,0-.75,0,.35.35,0,0,0-.35.37v2.73a.18.18,0,0,1-.18.18H40.31a.18.18,0,0,1-.18-.18V56a.35.35,0,0,0-.35-.37,3.14,3.14,0,0,0-.75,0,.35.35,0,0,0-.35.4c0,.34.07.86.13,1.37s.12,1.05.15,1.3a.17.17,0,0,1-.17.21h-1.6a.45.45,0,0,0-.43.37,6.74,6.74,0,0,0,0,1.42.44.44,0,0,0,.43.37h3.23a.18.18,0,0,1,.18.18V63a.18.18,0,0,1-.18.19H37.59a.38.38,0,0,0-.39.37,5.54,5.54,0,0,0,0,1.41c0,.27.19.37.39.37h2.83a.18.18,0,0,1,.18.18v1.79a.18.18,0,0,1-.18.18H37.15a.41.41,0,0,0-.41.33,5.1,5.1,0,0,0,0,1.46.45.45,0,0,0,.41.36h3.27a.19.19,0,0,1,.18.19v3.4c0,.21,0,.23.18.27a2.49,2.49,0,0,0,.77,0c.16,0,.18-.06.18-.27v-3.4a.19.19,0,0,1,.18-.19h3.54a.44.44,0,0,0,.41-.36A4.77,4.77,0,0,0,45.86,67.86Z"/></g></svg>